<?xml version="1.0" encoding="utf-8"?>
<!-- Generator: Adobe Illustrator 16.0.0, SVG Export Plug-In . SVG Version: 6.00 Build 0)  -->
<!DOCTYPE svg PUBLIC "-//W3C//DTD SVG 1.1//EN" "http://www.w3.org/Graphics/SVG/1.1/DTD/svg11.dtd">
<svg version="1.1" id="Layer_2" xmlns="http://www.w3.org/2000/svg" xmlns:xlink="http://www.w3.org/1999/xlink" x="0px" y="0px"
	 width="35px" height="35px" viewBox="0 0 35 35" enable-background="new 0 0 35 35" xml:space="preserve">
<g>
	<path fill="#025A84" d="M17.5,0C7.835,0,0,7.835,0,17.5S7.835,35,17.5,35S35,27.164,35,17.5S27.165,0,17.5,0z M12.997,25.861H8.96
		V13.716h4.037V25.861z M10.979,12.059h-0.026c-1.354,0-2.232-0.933-2.232-2.099c0-1.191,0.904-2.098,2.285-2.098
		c1.382,0,2.231,0.907,2.258,2.098C13.263,11.125,12.387,12.059,10.979,12.059z M27.557,25.861h-4.038v-6.498
		c0-1.631-0.583-2.746-2.045-2.746c-1.116,0-1.779,0.75-2.071,1.477c-0.106,0.26-0.134,0.621-0.134,0.984v6.783H15.23
		c0,0,0.054-11.006,0-12.146h4.039v1.721c0.536-0.826,1.494-2.006,3.64-2.006c2.656,0,4.648,1.736,4.648,5.466V25.861z"/>
	<path fill="#025A84" d="M19.269,15.477v-0.04c-0.008,0.014-0.02,0.027-0.027,0.04H19.269z"/>
</g>
</svg>
