<?xml version="1.0" encoding="utf-8"?>
<!-- Generator: Adobe Illustrator 16.0.0, SVG Export Plug-In . SVG Version: 6.00 Build 0)  -->
<!DOCTYPE svg PUBLIC "-//W3C//DTD SVG 1.1//EN" "http://www.w3.org/Graphics/SVG/1.1/DTD/svg11.dtd">
<svg version="1.1" id="Layer_2" xmlns="http://www.w3.org/2000/svg" xmlns:xlink="http://www.w3.org/1999/xlink" x="0px" y="0px"
	 width="35px" height="35px" viewBox="0 0 35 35" enable-background="new 0 0 35 35" xml:space="preserve">
<path fill="#339DC3" d="M17.5,0C7.835,0,0,7.834,0,17.499C0,27.165,7.835,35,17.5,35S35,27.165,35,17.499C35,7.834,27.165,0,17.5,0z
	 M26.09,13.094c0.009,0.19,0.013,0.381,0.013,0.573c0,5.857-4.458,12.61-12.61,12.61c-2.503,0-4.833-0.733-6.793-1.991
	c0.346,0.041,0.699,0.062,1.057,0.062c2.077,0,3.987-0.708,5.505-1.897c-1.94-0.035-3.576-1.316-4.141-3.077
	c0.271,0.052,0.548,0.079,0.834,0.079c0.404,0,0.796-0.054,1.168-0.155c-2.027-0.407-3.556-2.198-3.556-4.346
	c0-0.019,0-0.038,0-0.056c0.597,0.333,1.281,0.532,2.007,0.555c-1.189-0.795-1.972-2.152-1.972-3.689c0-0.812,0.219-1.574,0.6-2.229
	c2.186,2.682,5.452,4.446,9.135,4.631c-0.076-0.325-0.115-0.663-0.115-1.01c0-2.447,1.984-4.432,4.432-4.432
	c1.275,0,2.428,0.539,3.236,1.399c1.009-0.198,1.958-0.567,2.814-1.075c-0.332,1.036-1.034,1.903-1.949,2.452
	c0.896-0.106,1.751-0.345,2.546-0.697C27.707,11.688,26.956,12.469,26.09,13.094z"/>
</svg>
