<?xml version="1.0" encoding="utf-8"?>
<!-- Generator: Adobe Illustrator 16.0.0, SVG Export Plug-In . SVG Version: 6.00 Build 0)  -->
<!DOCTYPE svg PUBLIC "-//W3C//DTD SVG 1.1//EN" "http://www.w3.org/Graphics/SVG/1.1/DTD/svg11.dtd">
<svg version="1.1" id="Layer_2" xmlns="http://www.w3.org/2000/svg" xmlns:xlink="http://www.w3.org/1999/xlink" x="0px" y="0px"
	 width="35px" height="35px" viewBox="0 0 35 35" enable-background="new 0 0 35 35" xml:space="preserve">
<g>
	<polygon fill="#999999" points="15.408,21 21.383,17.06 15.408,13.122 	"/>
	<path fill="#999999" d="M17.5-0.039C7.835-0.039,0,7.796,0,17.461s7.835,17.5,17.5,17.5S35,27.126,35,17.461
		S27.165-0.039,17.5-0.039z M27.96,21.655c0,1.727-1.399,3.128-3.127,3.128H10.167c-1.728,0-3.127-1.401-3.127-3.128v-8.388
		c0-1.728,1.399-3.128,3.127-3.128h14.667c1.728,0,3.127,1.4,3.127,3.128V21.655z"/>
</g>
</svg>
