<?xml version="1.0" encoding="utf-8"?>
<!-- Generator: Adobe Illustrator 16.0.0, SVG Export Plug-In . SVG Version: 6.00 Build 0)  -->
<!DOCTYPE svg PUBLIC "-//W3C//DTD SVG 1.1//EN" "http://www.w3.org/Graphics/SVG/1.1/DTD/svg11.dtd">
<svg version="1.1" id="Layer_1" xmlns="http://www.w3.org/2000/svg" xmlns:xlink="http://www.w3.org/1999/xlink" x="0px" y="0px"
	 width="510px" height="57px" viewBox="0 0 510 57" enable-background="new 0 0 510 57" xml:space="preserve">
<g enable-background="new    ">
	<path fill="#94792E" d="M28.864,23.417c-0.645-0.666-1.134-1.126-1.47-1.38s-0.645-0.446-0.924-0.58
		c-0.364-0.16-0.777-0.286-1.239-0.38c-0.462-0.093-1.002-0.14-1.618-0.14c-0.645,0-1.344,0.074-2.101,0.22
		c-0.756,0.146-1.583,0.407-2.479,0.78c-1.513,0.694-2.969,1.587-4.369,2.68v17.44h-2.941v-23.28h2.941l-0.042,2.64
		c0.532-0.373,1.057-0.706,1.575-1c0.518-0.293,1.071-0.56,1.66-0.8c0.868-0.374,1.778-0.687,2.73-0.94s1.96-0.38,3.025-0.38
		c0.672,0,1.351,0.054,2.038,0.16c0.686,0.107,1.351,0.307,1.996,0.6c0.504,0.214,0.973,0.474,1.408,0.78
		c0.434,0.307,1.015,0.78,1.743,1.42L28.864,23.417z"/>
	<path fill="#94792E" d="M64.89,34.918c-0.546,1.453-1.373,2.74-2.479,3.859c-1.107,1.12-2.514,2.027-4.222,2.721
		c-1.709,0.692-3.739,1.039-6.092,1.039c-2.269,0-4.258-0.326-5.966-0.979c-1.708-0.653-3.13-1.54-4.264-2.66
		s-1.989-2.413-2.562-3.88c-0.575-1.467-0.861-3-0.861-4.6c0-1.92,0.357-3.634,1.071-5.141c0.714-1.506,1.694-2.773,2.941-3.8
		c1.246-1.026,2.695-1.813,4.348-2.36c1.652-0.546,3.417-0.82,5.293-0.82c1.876,0,3.641,0.274,5.293,0.82
		c1.652,0.547,3.095,1.34,4.327,2.38s2.206,2.313,2.92,3.82c0.714,1.507,1.071,3.22,1.071,5.14
		C65.709,31.978,65.436,33.465,64.89,34.918z M62.81,30.457c0-1.466-0.273-2.786-0.819-3.959c-0.546-1.173-1.296-2.173-2.248-3
		c-0.952-0.826-2.08-1.453-3.382-1.88c-1.302-0.426-2.724-0.64-4.264-0.64c-1.541,0-2.969,0.214-4.285,0.64
		c-1.317,0.427-2.451,1.054-3.403,1.88c-0.953,0.827-1.702,1.827-2.248,3c-0.546,1.174-0.819,2.494-0.819,3.959
		c0,1.228,0.216,2.414,0.651,3.561c0.434,1.146,1.092,2.16,1.975,3.04s2.002,1.58,3.361,2.101c1.358,0.52,2.962,0.779,4.811,0.779
		c1.792,0,3.361-0.26,4.706-0.779c1.344-0.521,2.45-1.221,3.319-2.101c0.868-0.88,1.519-1.886,1.954-3.021
		c0.434-1.133,0.651-2.326,0.651-3.58H62.81z"/>
	<path fill="#94792E" d="M114.905,42.058h-2.185l-6.134-10.72c-0.812-1.467-1.639-2.92-2.479-4.36
		c-0.84-1.44-1.667-2.893-2.479-4.36c-0.812,1.467-1.617,2.907-2.416,4.32c-0.798,1.414-1.604,2.854-2.416,4.32l-6.133,10.8h-2.143
		L75.33,18.777h3.235l6.05,10.721c0.812,1.493,1.638,2.973,2.479,4.439s1.681,2.947,2.521,4.439c1.792-3.226,3.598-6.445,5.419-9.66
		c1.82-3.213,3.697-6.526,5.629-9.94h1.975l6.176,10.801c0.84,1.493,1.673,2.967,2.5,4.42c0.826,1.453,1.659,2.913,2.5,4.379
		c0.84-1.492,1.673-2.973,2.5-4.439s1.645-2.934,2.458-4.4l6.092-10.76h3.235L114.905,42.058z"/>
	<path fill="#94792E" d="M140.658,31.258c0.111,1.6,0.497,2.953,1.155,4.06c0.658,1.106,1.47,2,2.437,2.681
		c0.966,0.68,2.017,1.166,3.151,1.459c1.134,0.295,2.248,0.44,3.34,0.44c1.177,0,2.401-0.101,3.676-0.3
		c1.274-0.2,2.479-0.426,3.613-0.68c1.135-0.254,2.128-0.507,2.983-0.76c0.854-0.254,1.435-0.434,1.744-0.541l0.21,2.641
		c-1.68,0.479-3.137,0.859-4.369,1.14c-1.233,0.28-2.556,0.54-3.97,0.78c-1.415,0.24-2.682,0.359-3.802,0.359
		c-1.708,0-3.389-0.26-5.041-0.779c-1.653-0.521-3.124-1.367-4.412-2.541c-1.121-1.039-2.01-2.306-2.667-3.799
		c-0.659-1.494-0.987-3.254-0.987-5.28c0-1.84,0.343-3.493,1.029-4.96c0.686-1.466,1.659-2.72,2.92-3.76
		c1.176-0.96,2.513-1.72,4.012-2.28c1.498-0.56,3.214-0.84,5.146-0.84c1.708,0,3.326,0.314,4.853,0.94
		c1.526,0.627,2.892,1.54,4.096,2.74c0.98,1.014,1.786,2.267,2.416,3.76c0.63,1.494,0.945,3.334,0.945,5.521H140.658z
		 M160.025,28.737c-0.168-1.013-0.504-1.993-1.008-2.94c-0.504-0.946-1.155-1.78-1.953-2.5c-0.798-0.72-1.723-1.293-2.773-1.72
		c-1.05-0.426-2.206-0.64-3.466-0.64c-1.428,0-2.738,0.207-3.928,0.62c-1.191,0.414-2.227,0.98-3.109,1.7
		c-0.882,0.72-1.59,1.547-2.122,2.48c-0.533,0.934-0.855,1.92-0.966,2.96h19.325V28.737z"/>
	<path fill="#94792E" d="M196.071,42.058v-15.96c0-0.747-0.084-1.433-0.252-2.06c-0.168-0.626-0.491-1.167-0.966-1.62
		c-0.42-0.373-1.002-0.713-1.744-1.02c-0.743-0.306-1.758-0.46-3.046-0.46c-1.485,0-3.208,0.334-5.167,1
		c-0.42,0.134-0.875,0.32-1.365,0.56c-0.491,0.24-0.981,0.5-1.471,0.78c-0.49,0.28-0.966,0.574-1.428,0.88
		c-0.462,0.307-0.876,0.594-1.239,0.86v17.04h-2.941v-23.28h2.941c0,0.054-0.007,0.24-0.021,0.56
		c-0.015,0.32-0.028,0.734-0.042,1.24c-0.015,0.507-0.036,0.947-0.063,1.32c1.596-1.04,3.178-1.853,4.747-2.44
		c2.072-0.773,4.117-1.16,6.134-1.16c2.968,0,5.223,0.76,6.764,2.28c0.7,0.694,1.218,1.474,1.554,2.34
		c0.336,0.867,0.504,1.914,0.504,3.14v16H196.071z"/>
	<path fill="#94792E" d="M233.252,42.058c-0.42-0.453-0.735-0.853-0.945-1.2c-0.21-0.346-0.385-0.68-0.525-1
		c-0.7,0.533-1.449,0.974-2.248,1.32s-1.59,0.619-2.374,0.82c-0.785,0.199-1.527,0.34-2.227,0.42
		c-0.701,0.08-1.317,0.119-1.849,0.119c-1.989,0-3.662-0.193-5.021-0.58c-1.359-0.386-2.458-0.899-3.298-1.539
		c-0.84-0.641-1.443-1.373-1.807-2.201c-0.364-0.826-0.546-1.68-0.546-2.559c0-1.654,0.441-3.027,1.323-4.121
		c0.882-1.093,2.149-1.979,3.802-2.66c1.652-0.68,3.655-1.213,6.007-1.6c2.353-0.386,5-0.7,7.94-0.94v-0.12
		c0-0.88-0.105-1.646-0.315-2.3c-0.21-0.653-0.596-1.2-1.155-1.64c-0.561-0.44-1.317-0.773-2.269-1
		c-0.952-0.226-2.157-0.34-3.613-0.34c-1.149,0-2.171,0.08-3.067,0.24c-0.896,0.16-1.541,0.307-1.933,0.44
		c-0.393,0.134-0.616,0.213-0.672,0.24l-0.294-2.84c0.056-0.026,0.336-0.093,0.84-0.2c0.504-0.106,1.232-0.22,2.185-0.34
		c0.952-0.12,1.946-0.18,2.983-0.18c3.529,0,6.105,0.654,7.73,1.96c1.624,1.307,2.437,3.227,2.437,5.76v11.199
		c0,0.48,0.014,0.861,0.042,1.141c0.027,0.28,0.084,0.533,0.168,0.76s0.217,0.447,0.399,0.66c0.182,0.214,0.427,0.494,0.735,0.84
		l1.302,1.44H233.252z M231.487,29.018c-2.885,0.24-5.35,0.533-7.394,0.88c-2.045,0.347-3.718,0.774-5.021,1.28
		c-1.302,0.507-2.255,1.119-2.857,1.84c-0.603,0.72-0.903,1.587-0.903,2.6c0,0.4,0.091,0.848,0.273,1.34
		c0.182,0.494,0.553,0.961,1.113,1.4c0.56,0.439,1.351,0.807,2.374,1.1c1.022,0.295,2.388,0.44,4.096,0.44
		c0.448,0,1.015-0.04,1.702-0.12c0.686-0.08,1.414-0.24,2.185-0.48c0.77-0.239,1.533-0.572,2.29-1
		c0.756-0.426,1.456-0.986,2.101-1.68L231.487,29.018z"/>
	<path fill="#DECF60" d="M250.855,16.178v-5.2h2.898v5.16L250.855,16.178z M250.855,42.058v-23.28h2.898v23.28H250.855z"/>
	<path fill="#DECF60" d="M292.174,34.737c-0.52,1.468-1.395,2.841-2.626,4.12c-1.036,1.066-2.381,1.947-4.033,2.641
		c-1.653,0.692-3.544,1.039-5.672,1.039c-0.7,0-1.548-0.06-2.542-0.18s-2.107-0.42-3.34-0.9c-0.477-0.213-0.973-0.466-1.491-0.76
		c-0.519-0.293-1.029-0.613-1.533-0.96v12.24h-2.94v-33.2h2.94l-0.042,2.24c0.392-0.293,0.818-0.566,1.281-0.82
		c0.462-0.253,0.973-0.486,1.533-0.7c0.868-0.373,1.807-0.667,2.814-0.88c1.009-0.213,2.115-0.32,3.319-0.32
		c4.062,0,7.324,1.254,9.789,3.76c1.009,1.04,1.813,2.253,2.415,3.64c0.603,1.387,0.904,2.934,0.904,4.641
		C292.951,31.805,292.691,33.271,292.174,34.737z M290.052,30.338c0-1.227-0.218-2.4-0.651-3.521s-1.071-2.106-1.911-2.96
		c-0.841-0.88-1.897-1.586-3.172-2.12c-1.274-0.533-2.767-0.8-4.475-0.8c-0.841,0-1.674,0.06-2.499,0.18
		c-0.827,0.12-1.66,0.367-2.5,0.74c-0.672,0.294-1.352,0.66-2.037,1.1c-0.688,0.44-1.324,0.94-1.912,1.5v11.88
		c0.812,0.72,1.561,1.287,2.248,1.699c0.686,0.414,1.309,0.74,1.869,0.98c0.588,0.24,1.287,0.447,2.101,0.62
		c0.812,0.173,1.722,0.26,2.73,0.26c1.456,0,2.843-0.233,4.159-0.7c1.316-0.466,2.465-1.206,3.445-2.22
		c0.756-0.772,1.371-1.706,1.848-2.8s0.715-2.373,0.715-3.84H290.052z"/>
	<path fill="#DECF60" d="M327.967,38.158c-0.518,0.786-1.281,1.526-2.289,2.219c-1.037,0.694-2.289,1.228-3.76,1.601
		s-3.145,0.56-5.021,0.56c-1.457,0-2.802-0.1-4.033-0.3c-1.233-0.2-2.381-0.46-3.445-0.78c-1.064-0.293-2.003-0.699-2.814-1.22
		c-0.813-0.521-1.737-1.22-2.772-2.1l2.143-2c1.063,1.12,2.484,2.021,4.264,2.7c1.778,0.68,3.941,1.02,6.49,1.02
		c1.346,0,2.661-0.133,3.949-0.4c1.289-0.266,2.396-0.68,3.319-1.24c1.232-0.799,1.849-1.772,1.849-2.92
		c0-0.399-0.092-0.819-0.273-1.26c-0.182-0.439-0.469-0.82-0.861-1.14c-0.279-0.239-0.602-0.453-0.966-0.64s-0.854-0.36-1.47-0.521
		c-0.617-0.159-1.387-0.319-2.311-0.479c-0.925-0.16-2.088-0.347-3.488-0.561c-1.344-0.186-2.492-0.359-3.444-0.52
		s-1.772-0.32-2.458-0.48c-0.687-0.16-1.274-0.346-1.764-0.56c-0.49-0.213-0.961-0.48-1.408-0.8
		c-1.568-1.066-2.353-2.426-2.353-4.08c0-1.093,0.308-2.026,0.925-2.8c0.615-0.773,1.441-1.386,2.479-1.84
		c2.016-0.88,4.719-1.32,8.107-1.32c1.232,0,2.443,0.074,3.635,0.22c1.189,0.147,2.346,0.46,3.466,0.94
		c0.728,0.294,1.429,0.68,2.101,1.16s1.414,1.2,2.227,2.16l-2.269,1.88c-0.812-1.146-1.94-2.046-3.382-2.7
		c-1.443-0.653-3.368-0.98-5.777-0.98c-1.344,0-2.625,0.08-3.844,0.24c-1.219,0.16-2.233,0.44-3.045,0.84
		c-1.149,0.56-1.723,1.293-1.723,2.2c0,0.32,0.068,0.627,0.209,0.92s0.406,0.586,0.799,0.88c0.279,0.214,0.588,0.394,0.924,0.54
		s0.791,0.293,1.365,0.44c0.574,0.147,1.33,0.3,2.27,0.46c0.938,0.16,2.148,0.347,3.634,0.56c1.345,0.214,2.499,0.407,3.466,0.58
		s1.82,0.36,2.562,0.56c0.742,0.2,1.379,0.428,1.912,0.68c0.531,0.254,1.021,0.555,1.471,0.9c0.699,0.533,1.238,1.188,1.617,1.96
		c0.378,0.774,0.566,1.587,0.566,2.44C328.744,36.377,328.485,37.371,327.967,38.158z"/>
	<path fill="#DECF60" d="M342.902,16.178v-5.2h2.898v5.16L342.902,16.178z M342.902,42.058v-23.28h2.898v23.28H342.902z"/>
	<path fill="#DECF60" d="M360.044,42.058v-31.08h2.898v31.08H360.044z"/>
	<path fill="#DECF60" d="M397.477,42.058c-0.42-0.453-0.735-0.853-0.945-1.2c-0.21-0.346-0.385-0.68-0.525-1
		c-0.7,0.533-1.449,0.974-2.248,1.32c-0.798,0.347-1.59,0.619-2.373,0.82c-0.785,0.199-1.527,0.34-2.227,0.42
		c-0.701,0.08-1.316,0.119-1.849,0.119c-1.989,0-3.662-0.193-5.021-0.58c-1.359-0.386-2.457-0.899-3.298-1.539
		c-0.841-0.641-1.442-1.373-1.807-2.201c-0.364-0.826-0.546-1.68-0.546-2.559c0-1.654,0.441-3.027,1.323-4.121
		c0.882-1.093,2.149-1.979,3.802-2.66s3.655-1.213,6.008-1.6c2.354-0.386,5-0.7,7.94-0.94v-0.12c0-0.88-0.104-1.646-0.315-2.3
		c-0.209-0.653-0.596-1.2-1.154-1.64c-0.561-0.44-1.317-0.773-2.27-1c-0.952-0.226-2.156-0.34-3.613-0.34
		c-1.148,0-2.17,0.08-3.066,0.24c-0.896,0.16-1.541,0.307-1.933,0.44c-0.393,0.134-0.616,0.213-0.673,0.24l-0.293-2.84
		c0.055-0.026,0.336-0.093,0.84-0.2c0.504-0.106,1.232-0.22,2.185-0.34s1.946-0.18,2.983-0.18c3.528,0,6.105,0.654,7.729,1.96
		c1.624,1.307,2.437,3.227,2.437,5.76v11.199c0,0.48,0.014,0.861,0.043,1.141c0.027,0.28,0.084,0.533,0.168,0.76
		s0.216,0.447,0.398,0.66c0.182,0.214,0.427,0.494,0.735,0.84l1.303,1.44H397.477z M395.712,29.018
		c-2.886,0.24-5.351,0.533-7.394,0.88c-2.045,0.347-3.719,0.774-5.021,1.28c-1.302,0.507-2.254,1.119-2.856,1.84
		c-0.603,0.72-0.903,1.587-0.903,2.6c0,0.4,0.091,0.848,0.273,1.34c0.182,0.494,0.553,0.961,1.113,1.4s1.352,0.807,2.373,1.1
		c1.022,0.295,2.389,0.44,4.097,0.44c0.448,0,1.015-0.04,1.702-0.12c0.686-0.08,1.413-0.24,2.184-0.48
		c0.771-0.239,1.533-0.572,2.29-1c0.757-0.426,1.456-0.986,2.101-1.68L395.712,29.018z"/>
	<path fill="#DECF60" d="M433.984,42.058v-15.96c0-0.747-0.084-1.433-0.252-2.06c-0.168-0.626-0.49-1.167-0.966-1.62
		c-0.42-0.373-1.002-0.713-1.744-1.02c-0.742-0.306-1.758-0.46-3.045-0.46c-1.485,0-3.208,0.334-5.168,1
		c-0.42,0.134-0.876,0.32-1.365,0.56c-0.49,0.24-0.98,0.5-1.471,0.78c-0.49,0.28-0.966,0.574-1.429,0.88
		c-0.462,0.307-0.875,0.594-1.239,0.86v17.04h-2.94v-23.28h2.94c0,0.054-0.007,0.24-0.021,0.56c-0.015,0.32-0.028,0.734-0.042,1.24
		c-0.015,0.507-0.035,0.947-0.063,1.32c1.597-1.04,3.179-1.853,4.748-2.44c2.072-0.773,4.117-1.16,6.134-1.16
		c2.968,0,5.223,0.76,6.764,2.28c0.699,0.694,1.218,1.474,1.555,2.34c0.336,0.867,0.504,1.914,0.504,3.14v16H433.984z"/>
	<path fill="#DECF60" d="M470.829,41.638c-1.681,0.6-3.544,0.899-5.588,0.899c-1.064,0-2.248-0.094-3.55-0.279
		c-1.303-0.188-2.528-0.586-3.676-1.2c-1.149-0.613-2.115-1.493-2.899-2.64s-1.176-2.666-1.176-4.561v-12.48h-6.975v-2.56h6.975
		v-6.52h2.898v6.48h15.587v2.56h-15.587v12.52c0,1.254,0.237,2.268,0.714,3.04c0.477,0.774,1.113,1.387,1.912,1.84
		c0.798,0.454,1.708,0.761,2.73,0.921c1.022,0.159,2.065,0.239,3.13,0.239c1.652,0,3.199-0.286,4.643-0.86
		c1.442-0.572,2.794-1.166,4.054-1.779l1.261,2.439C473.993,40.391,472.51,41.037,470.829,41.638z"/>
	<path fill="#DECF60" d="M487.592,16.178v-5.2h2.899v5.16L487.592,16.178z M487.592,42.058v-23.28h2.899v23.28H487.592z"/>
</g>
</svg>
