<?xml version="1.0" encoding="utf-8"?>
<!-- Generator: Adobe Illustrator 16.0.0, SVG Export Plug-In . SVG Version: 6.00 Build 0)  -->
<!DOCTYPE svg PUBLIC "-//W3C//DTD SVG 1.1//EN" "http://www.w3.org/Graphics/SVG/1.1/DTD/svg11.dtd">
<svg version="1.1" id="Layer_1" xmlns="http://www.w3.org/2000/svg" xmlns:xlink="http://www.w3.org/1999/xlink" x="0px" y="0px"
	 width="120px" height="120px" viewBox="15 15 120 120" enable-background="new 15 15 120 120" xml:space="preserve">
<g id="Final_Logo">
	<path fill="#94792E" d="M73.364,72.277c1.054-2.14,2.198-4.374,4.269-5.703c3.367-2.161,6.09,0.554,7.581,3.43
		c2.285,4.413,1.18,10.62-1.059,14.818c-0.812,1.523-1.903,2.935-3.16,4.119c-0.962,0.911-3.117,2.488-3.117,2.488l0.013,0.03
		l17.417-7.389c-2.755-6.764-0.498-16.179,7.095-18.537c7.415-2.303,10.565,4.552,11.906,10.477
		c0.864-1.965,1.862-4.219,1.991-6.388c0.309-5.109-1.224-10.798-4.75-14.704c-4.438-4.912-11.223-6.192-17.353-7.738
		c-3.451-4.403-6.646-9.093-12.106-11.124c-5.503-2.046-11.489-1.947-16.91,0.343c-6.742,2.848-11.276,9.499-15.683,15.019
		c-3.186,3.989-6.103,8.175-9.217,12.218c-1.455,1.888-2.881,3.812-4.464,5.599c-2.477,2.795-5.302,5.62-8.631,7.386
		c-2.837,1.505-5.794,2.015-8.837,2.026c-1.085,0.004-3.284-0.309-3.284-0.309c2.309,2.025,4.463,3.856,7.656,4.146
		c3.229,0.292,6.475-0.647,9.451-1.806c5.564-2.165,10.374-5.944,14.443-10.269c4.366-4.641,8.588-9.401,13.021-13.983
		c4.921-5.088,11.628-11.331,19.307-10.405c4.566,0.551,9.94,6.494,5.156,10.492c-2.233,1.867-4.346-1.16-5.617-2.708
		c-1.688-2.055-5.114-1.821-7.418-1.562c-1.671,0.187-3.265,0.721-4.743,1.515c-5.352,2.877-9.653,8.282-13.712,12.689
		c-1.535,1.667-2.964,3.423-4.402,5.172c-4.299,5.229-9.095,10.001-14.986,13.417c-1.299,0.753-2.657,1.444-4.052,2.001
		c-2.508,0.999-5.152,1.652-7.86,1.64c-1.327-0.005-2.62-0.16-3.892-0.548c-0.326-0.099-2.548-1.01-2.548-1.01
		s0.965,3.956,1.058,4.329c0.638,2.572,1.305,5.139,2.194,7.638c1.158,3.256,2.524,6.603,4.73,9.301
		c3.854,4.715,10.1,6.695,16.049,6.004c1.578-0.185,3.17-0.569,4.659-1.12c5.412-2,9.953-5.879,13.262-10.554
		c1.865-2.633,3.574-5.375,5.175-8.176c2.847-4.977,5.366-10.127,7.898-15.266C71.045,76.942,72.214,74.615,73.364,72.277z"/>
	<path fill="#DECF60" d="M134.383,72.902c-0.338-3.106-0.75-6.216-1.441-9.266c-2.459-10.861-7.932-21.806-18.903-26.149
		c-1.909-0.755-3.899-1.284-5.899-1.738c-1.731-0.393-5.831-1.17-5.831-1.17s2.836,1.198,5.661,3.08
		c1.976,1.317,3.946,3.117,4.939,4.444c5.023,6.721,7.024,15.721,6.517,23.993c-0.459,7.504-2.331,16.8-7.879,22.323
		c-2.067,2.058-4.446,2.956-6.771,2.909l-0.014,0.016c-3.598-0.08-7.055-2.424-8.988-6.248c-0.173-0.338-0.328-0.686-0.474-1.039
		l-17.42,7.374l0.012,0.028c0.121,0.438,1.138,4.088,1.257,4.509c0.722,2.551,1.663,5.028,2.882,7.384
		c3.849,7.432,11.422,12.934,20.12,11.96c7.675-0.86,14.694-6.457,18.599-12.912c2.178-3.603,4.056-7.369,4.823-11.533
		c0.852-4.621,0.951-9.347,0.961-14.036c0.005-1.83-0.591-3.537-1.594-5.057c-0.92-1.393-2.37-2.637-1.909-4.483
		c0.281-1.125,1.542-2.569,2.814-1.904c2.255,1.179,1.151,4.16,1.346,6.127c0.134,1.369,1.15,2.485,1.619,3.752
		c1.579,4.246,1.705,8.973,1.447,13.446c-0.268,4.634-1.352,9.226-3.141,13.506c-0.457,1.093-0.964,2.166-1.511,3.219
		c-0.87,1.676-1.829,3.315-2.912,4.862c-0.985,1.409-3.535,4.139-3.535,4.139s1.521-0.952,2.19-1.441
		c1.228-0.901,2.353-1.936,3.383-3.057c0.835-0.908,1.627-1.855,2.375-2.838c2.618-3.452,4.605-7.339,5.896-11.475
		c1.12-3.588,1.583-7.348,1.781-11.091C134.988,80.652,134.804,76.766,134.383,72.902z"/>
</g>
<g id="Name_Logo" display="none">
</g>
<g id="Logo_Full" display="none">
	<path display="inline" fill="#94792E" d="M1061.624,40.241c-5.598-51.456-12.417-102.954-23.858-153.474
		C997.028-293.108,906.391-474.394,724.665-546.33c-31.62-12.517-64.603-21.284-97.723-28.801
		c-28.674-6.507-96.566-19.382-96.566-19.382s46.96,19.847,93.75,51.023c32.729,21.81,65.38,51.617,81.817,73.608
		C789.14-358.578,822.281-209.49,813.881-72.481c-7.62,124.292-38.597,278.258-130.507,369.737
		c-34.234,34.072-73.671,48.958-112.149,48.187l-0.219,0.232c-59.591-1.287-116.853-40.129-148.884-103.479
		C365.189,129.602,399.693-40.718,531.93-81.785c122.821-38.142,175.014,75.39,197.229,173.523
		c14.295-32.536,30.812-69.881,32.969-105.792c5.083-84.62-20.255-178.834-78.689-243.528
		c-73.495-81.356-185.885-102.558-287.401-128.175c-57.173-72.934-110.089-150.61-200.531-184.248
		c-91.132-33.894-190.29-32.243-280.068,5.686c-111.656,47.169-186.761,157.338-259.762,248.76
		c-52.758,66.069-101.064,135.411-152.654,202.374c-24.107,31.29-47.723,63.147-73.934,92.729
		c-41.03,46.305-87.823,93.093-142.968,122.333c-46.997,24.92-95.965,33.364-146.354,33.557
		c-17.958,0.069-54.391-5.106-54.391-5.106c38.242,33.536,73.932,63.87,126.801,68.669c53.476,4.852,107.233-10.701,156.54-29.896
		c92.169-35.879,171.82-98.456,239.215-170.079c72.323-76.859,142.248-155.715,215.663-231.611
		C-94.884-316.868,16.2-420.263,143.368-404.925C219.009-395.801,308-297.36,228.781-231.136
		c-36.987,30.917-71.981-19.218-93.025-44.847c-27.959-34.056-84.705-30.172-122.874-25.897
		c-27.674,3.101-54.08,11.943-78.563,25.101c-88.63,47.634-159.882,137.171-227.104,210.163
		c-25.424,27.605-49.088,56.704-72.913,85.677c-71.214,86.603-150.643,165.652-248.224,222.21
		c-21.518,12.472-44.006,23.935-67.115,33.148c-41.526,16.561-85.327,27.368-130.19,27.184c-21.979-0.093-43.398-2.674-64.471-9.074
		c-5.407-1.641-42.204-16.733-42.204-16.733s15.985,65.525,17.516,71.694c10.562,42.61,21.627,85.122,36.356,126.518
		c19.192,53.933,41.798,109.338,78.332,154.045c63.825,78.105,167.286,110.895,265.81,99.437
		c26.131-3.039,52.51-9.421,77.164-18.534c89.647-33.136,164.853-97.379,219.672-174.785c30.896-43.627,59.182-89.06,85.727-135.446
		C-90.171,316.328-48.45,230.999-6.507,145.877C12.566,107.17,31.94,68.613,50.996,29.899
		c17.446-35.443,36.406-72.455,70.699-94.453c55.783-35.78,100.881,9.181,125.558,56.809c37.865,73.083,19.56,175.866-17.515,245.42
		c-13.45,25.235-31.553,48.617-52.336,68.249c-15.952,15.07-51.644,41.211-51.644,41.211l0.198,0.471
		c2.014,7.235,18.852,67.721,20.818,74.682c11.935,42.229,27.549,83.292,47.74,122.289
		c63.738,123.091,189.166,214.225,333.248,198.083c127.1-14.239,243.369-106.934,308.032-213.856
		c36.086-59.664,67.186-122.059,79.889-191.025c14.104-76.553,15.757-154.813,15.935-232.461c0.068-30.33-9.805-58.589-26.42-83.77
		c-15.233-23.086-39.256-43.673-31.615-74.262c4.657-18.635,25.554-42.545,46.617-31.529
		c37.336,19.525,19.066,68.891,22.279,101.482c2.233,22.66,19.046,41.168,26.834,62.125
		c26.141,70.341,28.237,148.617,23.961,222.732c-4.429,76.733-22.37,152.78-52.021,223.666c-7.579,18.12-15.978,35.891-25.027,53.32
		c-14.407,27.747-30.287,54.905-48.223,80.531c-16.341,23.35-58.564,68.553-58.564,68.553s25.2-15.755,36.283-23.891
		c20.318-14.91,38.969-32.063,56.025-50.599c13.846-15.046,26.973-30.742,39.33-47.034c43.386-57.187,76.279-121.55,97.672-190.04
		c18.558-59.427,26.209-121.7,29.49-183.692C1071.645,168.602,1068.584,104.229,1061.624,40.241z"/>
</g>
</svg>
