<?xml version="1.0" encoding="utf-8"?>
<!-- Generator: Adobe Illustrator 16.0.0, SVG Export Plug-In . SVG Version: 6.00 Build 0)  -->
<!DOCTYPE svg PUBLIC "-//W3C//DTD SVG 1.1//EN" "http://www.w3.org/Graphics/SVG/1.1/DTD/svg11.dtd">
<svg version="1.1" xmlns="http://www.w3.org/2000/svg" xmlns:xlink="http://www.w3.org/1999/xlink" x="0px" y="0px" width="150px"
	 height="150px" viewBox="0 0 150 150" enable-background="new 0 0 150 150" xml:space="preserve">
<g id="Final_Logo">
	<path fill="#94792E" d="M73.001,71.619c1.308-2.657,2.729-5.431,5.3-7.081c4.182-2.683,7.562,0.688,9.413,4.259
		c2.838,5.479,1.465,13.185-1.313,18.398c-1.009,1.892-2.365,3.645-3.924,5.116c-1.195,1.13-3.871,3.09-3.871,3.09l0.015,0.036
		l21.626-9.174c-3.42-8.398-0.618-20.089,8.809-23.017c9.208-2.859,13.12,5.652,14.785,13.009c1.072-2.44,2.312-5.239,2.472-7.932
		c0.382-6.344-1.519-13.407-5.898-18.257c-5.51-6.099-13.935-7.688-21.546-9.608c-4.285-5.467-8.253-11.291-15.032-13.812
		c-6.833-2.541-14.266-2.417-20.997,0.426c-8.371,3.536-14.001,11.795-19.474,18.648c-3.955,4.954-7.577,10.151-11.444,15.171
		c-1.807,2.345-3.578,4.734-5.543,6.952c-3.075,3.471-6.583,6.978-10.717,9.17c-3.523,1.869-7.194,2.502-10.972,2.517
		c-1.347,0.005-4.078-0.384-4.078-0.384c2.867,2.515,5.542,4.789,9.506,5.149c4.009,0.363,8.039-0.804,11.735-2.242
		c6.909-2.689,12.881-7.381,17.933-12.75c5.422-5.762,10.664-11.673,16.168-17.363c6.111-6.318,14.439-14.069,23.973-12.919
		c5.67,0.684,12.342,8.063,6.402,13.028c-2.772,2.318-5.395-1.44-6.974-3.362c-2.095-2.552-6.35-2.261-9.211-1.94
		c-2.075,0.232-4.054,0.895-5.889,1.881C57.61,52.2,52.269,58.912,47.229,64.384c-1.906,2.069-3.68,4.25-5.466,6.422
		c-5.338,6.493-11.293,12.418-18.608,16.66c-1.613,0.935-3.299,1.794-5.031,2.484c-3.114,1.241-6.397,2.052-9.76,2.037
		c-1.647-0.006-3.253-0.2-4.833-0.68c-0.405-0.123-3.164-1.254-3.164-1.254s1.199,4.912,1.313,5.375
		c0.792,3.193,1.621,6.381,2.725,9.483c1.438,4.043,3.134,8.198,5.873,11.549c4.785,5.855,12.541,8.313,19.927,7.454
		c1.959-0.228,3.937-0.707,5.785-1.39c6.72-2.484,12.358-7.299,16.468-13.104c2.316-3.27,4.437-6.675,6.426-10.153
		c3.535-6.178,6.663-12.574,9.807-18.955C70.121,77.411,71.573,74.521,73.001,71.619z"/>
	<path fill="#DECF60" d="M148.766,72.395c-0.42-3.857-0.931-7.718-1.789-11.505c-3.054-13.485-9.849-27.075-23.472-32.468
		c-2.371-0.938-4.843-1.595-7.326-2.159c-2.15-0.487-7.239-1.453-7.239-1.453s3.52,1.488,7.028,3.825
		c2.453,1.635,4.9,3.87,6.133,5.518c6.238,8.345,8.722,19.521,8.093,29.792c-0.571,9.317-2.895,20.859-9.784,27.718
		c-2.567,2.555-5.522,3.67-8.407,3.612l-0.017,0.019c-4.467-0.098-8.759-3.01-11.161-7.758c-0.213-0.42-0.407-0.851-0.586-1.29
		l-21.632,9.156l0.015,0.036c0.151,0.542,1.413,5.075,1.561,5.598c0.896,3.167,2.065,6.244,3.578,9.168
		c4.779,9.227,14.182,16.06,24.983,14.85c9.529-1.068,18.245-8.017,23.093-16.032c2.704-4.473,5.036-9.15,5.989-14.321
		c1.057-5.738,1.181-11.605,1.194-17.427c0.005-2.273-0.735-4.392-1.98-6.28c-1.142-1.73-2.943-3.274-2.37-5.567
		c0.349-1.397,1.915-3.19,3.494-2.364c2.8,1.464,1.43,5.165,1.671,7.608c0.167,1.699,1.428,3.086,2.011,4.658
		c1.96,5.273,2.117,11.141,1.797,16.697c-0.332,5.753-1.678,11.454-3.9,16.769c-0.567,1.357-1.197,2.689-1.876,3.997
		c-1.08,2.08-2.271,4.116-3.615,6.037c-1.224,1.75-4.39,5.139-4.39,5.139s1.889-1.182,2.72-1.79c1.523-1.119,2.921-2.403,4.2-3.795
		c1.037-1.128,2.021-2.304,2.948-3.524c3.252-4.287,5.719-9.112,7.322-14.247c1.391-4.456,1.965-9.123,2.211-13.771
		C149.517,82.018,149.288,77.191,148.766,72.395z"/>
</g>
<g id="Name_Logo" display="none">
</g>
<g id="Logo_Full" display="none">
	<path display="inline" fill="#94792E" d="M1061.624,40.241c-5.598-51.456-12.417-102.954-23.858-153.474
		c-40.738-179.875-131.375-361.161-313.101-433.097c-31.62-12.517-64.602-21.284-97.723-28.801
		c-28.673-6.507-96.566-19.382-96.566-19.382s46.96,19.847,93.75,51.023c32.729,21.81,65.38,51.617,81.817,73.608
		c83.197,111.304,116.338,260.392,107.938,397.401c-7.62,124.292-38.597,278.259-130.507,369.737
		c-34.234,34.072-73.671,48.958-112.149,48.186l-0.219,0.233c-59.591-1.287-116.853-40.129-148.884-103.479
		C365.189,129.602,399.693-40.718,531.93-81.785C654.751-119.927,706.943-6.395,729.158,91.738
		c14.295-32.536,30.812-69.881,32.969-105.792c5.083-84.62-20.255-178.834-78.689-243.528
		c-73.496-81.356-185.885-102.558-287.402-128.175c-57.172-72.934-110.089-150.61-200.531-184.248
		c-91.132-33.894-190.29-32.243-280.068,5.686c-111.656,47.169-186.761,157.338-259.762,248.76
		c-52.758,66.069-101.064,135.411-152.654,202.374c-24.107,31.29-47.723,63.147-73.934,92.729
		c-41.03,46.305-87.823,93.093-142.968,122.333c-46.997,24.92-95.965,33.364-146.354,33.557
		c-17.958,0.069-54.391-5.107-54.391-5.107c38.242,33.536,73.932,63.871,126.801,68.669c53.476,4.852,107.233-10.701,156.54-29.896
		c92.169-35.879,171.82-98.456,239.215-170.079c72.323-76.859,142.248-155.715,215.663-231.611
		c81.523-84.278,192.607-187.673,319.775-172.335c75.641,9.124,164.632,107.565,85.414,173.789
		c-36.988,30.917-71.982-19.218-93.026-44.847c-27.959-34.056-84.705-30.172-122.874-25.897
		c-27.674,3.101-54.08,11.943-78.563,25.101c-88.63,47.634-159.882,137.171-227.104,210.163
		c-25.424,27.605-49.088,56.704-72.913,85.677c-71.214,86.603-150.643,165.652-248.224,222.21
		c-21.518,12.472-44.006,23.935-67.115,33.149c-41.526,16.56-85.327,27.368-130.19,27.183c-21.979-0.092-43.398-2.673-64.471-9.074
		c-5.407-1.64-42.204-16.733-42.204-16.733s15.985,65.525,17.515,71.694c10.563,42.611,21.627,85.122,36.357,126.518
		c19.192,53.932,41.798,109.338,78.332,154.045c63.825,78.105,167.286,110.894,265.81,99.436
		c26.131-3.039,52.51-9.421,77.164-18.534c89.647-33.136,164.853-97.379,219.672-174.785c30.896-43.627,59.182-89.06,85.727-135.446
		c47.154-82.396,88.875-167.725,130.818-252.847c19.073-38.707,38.447-77.264,57.503-115.978
		c17.446-35.443,36.407-72.455,70.699-94.453c55.783-35.78,100.881,9.181,125.558,56.809c37.865,73.083,19.56,175.866-17.514,245.42
		c-13.451,25.235-31.554,48.617-52.336,68.249c-15.953,15.07-51.644,41.211-51.644,41.211l0.198,0.471
		c2.014,7.235,18.852,67.72,20.818,74.681c11.935,42.23,27.549,83.292,47.741,122.289
		c63.738,123.091,189.165,214.225,333.248,198.083c127.099-14.239,243.369-106.933,308.032-213.856
		c36.086-59.664,67.185-122.059,79.889-191.026c14.104-76.553,15.756-154.813,15.934-232.46c0.068-30.33-9.805-58.59-26.42-83.77
		c-15.233-23.086-39.256-43.673-31.615-74.262c4.657-18.635,25.554-42.545,46.617-31.529
		c37.336,19.525,19.067,68.891,22.279,101.482c2.234,22.66,19.046,41.168,26.834,62.126c26.141,70.34,28.238,148.616,23.961,222.732
		c-4.428,76.733-22.37,152.78-52.021,223.666c-7.579,18.12-15.978,35.89-25.027,53.32c-14.408,27.747-30.288,54.905-48.223,80.531
		c-16.341,23.35-58.565,68.553-58.565,68.553s25.201-15.755,36.284-23.89c20.318-14.911,38.968-32.064,56.025-50.599
		c13.846-15.046,26.973-30.742,39.33-47.034c43.386-57.187,76.279-121.55,97.672-190.04c18.558-59.427,26.209-121.7,29.49-183.693
		C1071.645,168.602,1068.584,104.228,1061.624,40.241z"/>
</g>
</svg>
